<svg xmlns="http://www.w3.org/2000/svg" width="24" height="24" viewBox="0 0 24 24">
  <g id="Grupo_85" data-name="Grupo 85" transform="translate(4785 -7410)">
    <rect id="Rectángulo_392" data-name="Rectángulo 392" width="24" height="24" rx="2" transform="translate(-4785 7410)" fill="#fff"/>
    <g id="Page-1" transform="translate(-4781 7413.999)">
      <g id="Dribbble-Light-Preview" transform="translate(0 0.001)">
        <g id="icons">
          <path id="instagram-_167_" data-name="instagram-[#167]" d="M288.7,7279.1a4.416,4.416,0,0,0-4.63,4.624c-.037.8-.251,6.88.37,8.473a4.035,4.035,0,0,0,2.329,2.321,5.638,5.638,0,0,0,1.932.367c7.088.32,9.716.152,10.824-2.688a5.77,5.77,0,0,0,.37-1.929c.324-7.1-.053-8.648-1.288-9.879-.98-.977-2.133-1.64-9.906-1.289m.065,14.361a4.691,4.691,0,0,1-1.478-.273,2.622,2.622,0,0,1-1.51-1.511c-.473-1.208-.316-6.96-.274-7.888a3.409,3.409,0,0,1,.869-2.392c.8-.793,1.825-1.184,8.827-.865a3.408,3.408,0,0,1,2.394.865c.8.792,1.191,1.831.87,8.808a4.359,4.359,0,0,1-.274,1.472c-.721,1.849-2.378,2.1-9.423,1.784m6.511-10.7a.956.956,0,1,0,.955-.952.952.952,0,0,0-.955.952m-7.382,4.239a4.088,4.088,0,1,0,4.087-4.08,4.08,4.08,0,0,0-4.087,4.08m1.434,0a2.653,2.653,0,1,1,2.653,2.648,2.649,2.649,0,0,1-2.653-2.648" transform="translate(-284 -7279.001)" fill="#262626" fill-rule="evenodd"/>
        </g>
      </g>
    </g>
  </g>
</svg>
