<?xml version="1.0" encoding="UTF-8"?>
<svg id="Capa_2" data-name="Capa 2" xmlns="http://www.w3.org/2000/svg" viewBox="0 0 986.89 260.08">
  <defs>
    <style>
      .cls-1 {
        fill: #fff;
      }

      .cls-2 {
        fill: #62559e;
      }
    </style>
  </defs>
  <g id="Capa_1-2" data-name="Capa 1">
    <path class="cls-1" d="M96.62,61.46v27.38H46.7c-12.62,0-18.25,5.9-18.25,18.25v96.09H0V102.8c0-28.45,10.47-41.33,38.38-41.33h58.24Z"/>
    <path class="cls-1" d="M216.87,61.46c33.55,0,47.78,16.1,47.78,43.48s-13.15,40.8-48.04,40.8h-67.37v10.2c0,11.27,6.17,19.59,21.74,19.59h86.69v27.65h-86.69c-35.43,0-49.39-19.86-49.39-46.7v-48.31c0-26.84,13.96-46.7,49.39-46.7h45.9Zm-67.64,62h66.56c15.3,0,20.94-6.44,20.94-16.91s-6.17-17.71-20.13-17.71h-45.63c-15.57,0-21.74,8.59-21.74,19.59v15.03Z"/>
    <path class="cls-1" d="M382.73,104.41v27.38h-95.82v-27.38h95.82Z"/>
    <path class="cls-1" d="M501.63,61.46c37.58,0,61.2,23.08,61.2,70.86s-23.62,70.86-61.2,70.86h-62.81v56.9h-28.45V122.12c0-40.8,17.98-60.66,52.07-60.66h39.19Zm-62.81,114.07h59.85c24.69,0,35.43-12.62,35.43-43.21s-10.74-43.48-35.43-43.48h-27.91c-23.08,0-31.94,10.2-31.94,34.62v52.07Z"/>
    <path class="cls-1" d="M625.36,0V203.18h-28.45V0h28.45Z"/>
    <path class="cls-1" d="M756.87,61.46c35.43,0,49.39,19.86,49.39,46.7v66.56c0,20.4-5.37,28.45-29.26,28.45h-66.3c-33.55,0-47.51-16.37-47.51-43.21s12.88-40.8,47.78-40.8h67.37v-10.74c0-11-6.17-19.59-21.74-19.59h-84.81v-27.38h85.08Zm21.47,106.82v-26.57h-66.83c-15.03,0-20.4,6.17-20.4,16.64s5.64,17.18,19.86,17.18h59.58c5.64,0,7.78-2.15,7.78-7.25Z"/>
    <path class="cls-1" d="M986.89,61.46l-85.35,198.62h-30.6l26.57-62c-16.1,0-21.74-5.1-26.57-17.45l-47.51-119.17h30.06l42.68,105.48c1.88,5.1,3.22,5.91,8.59,5.91h3.76l48.04-111.39h30.33Z"/>
    <path class="cls-2" d="M897.51,198.08c-16.1,0-21.74-5.1-26.57-17.45l-47.51-119.17h30.06l42.68,105.48c1.88,5.1,3.22,5.91,8.59,5.91h3.76l-11,25.23Z"/>
  </g>
</svg>